<?xml version="1.0" encoding="UTF-8"?>
<!DOCTYPE svg PUBLIC "-//W3C//DTD SVG 1.1//EN" "http://www.w3.org/Graphics/SVG/1.1/DTD/svg11.dtd">
<!-- Creator: CorelDRAW -->
<svg xmlns="http://www.w3.org/2000/svg" xml:space="preserve" width="2048px" height="2048px" style="shape-rendering:geometricPrecision; text-rendering:geometricPrecision; image-rendering:optimizeQuality; fill-rule:evenodd; clip-rule:evenodd"
viewBox="0 0 2048 2048"
 xmlns:xlink="http://www.w3.org/1999/xlink">
 <defs>
  <style type="text/css">
   <![CDATA[
    .fil1 {fill:none}
    .fil0 {fill:#424242}
   ]]>
  </style>
 </defs>
 <g id="Layer_x0020_1">
  <metadata id="CorelCorpID_0Corel-Layer"/>
  <g id="_283781352">
   <path id="_283782584" class="fil0" d="M1267.27 1267.27c-424.053,412.321 -922.508,584.998 -1000.87,506.141 -58.0571,-58.4221 177.393,-191.613 421.122,-479.328l1.89921 -2.22638 116.072 86.68 19.9961 -6.79725c95.328,-32.4095 214.549,-118.704 322.975,-223.273 104.569,-108.426 190.864,-227.647 223.273,-322.975l6.79725 -19.9961 -86.68 -116.072 2.22638 -1.89921c287.716,-243.729 420.906,-479.18 479.328,-421.122 78.8575,78.3615 -93.8198,576.817 -506.141,1000.87z"/>
   <path id="_283780400" class="fil0" d="M812.579 1333.76c89.6198,-30.4689 203.451,-113.407 307.468,-213.714 100.306,-104.017 183.245,-217.849 213.714,-307.468l-129.806 -173.817c-16.2839,31.7599 -36.9154,65.4804 -60.9343,100.217 -33.111,47.8867 -72.7819,97.878 -116.411,147.403 23.3445,39.3721 18,91.0005 -15.9496,124.736 -33.7878,33.5764 -85.1245,38.7095 -124.282,15.4937 -49.5237,43.6288 -99.5139,83.2985 -147.401,116.41 -34.7362,24.0189 -68.4579,44.6492 -100.217,60.9343l173.817 129.806zm187.117 -477.296c41.2583,-47.0693 78.7607,-94.4682 110.156,-139.873 27.8244,-40.2402 50.7556,-78.789 67.1162,-113.968l-195.265 -261.473c-128.31,-171.817 -255.477,-39.0024 -270.9,12.6213 -20.2477,67.78 -72.5575,147.043 -138.98,218.051 -71.0079,66.4229 -150.271,118.733 -218.051,138.98 -51.6237,15.4228 -184.439,142.59 -12.6213,270.9l261.473 195.265c35.1792,-16.3606 73.728,-39.2918 113.968,-67.1162 45.4075,-31.3949 92.804,-68.8997 139.876,-110.158 -30.039,-40.187 -26.6988,-97.3831 9.91418,-133.766 36.4583,-36.228 93.3426,-39.3402 133.315,-9.463z"/>
  </g>
 </g>
 <rect class="fil1" width="2048" height="2048"/>
</svg>
