<?xml version="1.0" encoding="utf-8"?>
<!-- Generator: Adobe Illustrator 21.1.0, SVG Export Plug-In . SVG Version: 6.00 Build 0)  -->
<svg version="1.1" id="Layer_1" xmlns="http://www.w3.org/2000/svg" xmlns:xlink="http://www.w3.org/1999/xlink" x="0px" y="0px"
	 viewBox="0 0 64 64" style="enable-background:new 0 0 64 64;" xml:space="preserve">
<style type="text/css">
	.st0{fill:#FFFFFF;}
	.st1{fill:#ACBDC5;}
	.st2{fill:#597380;}
	.st3{fill-rule:evenodd;clip-rule:evenodd;fill:#314A52;}
	.st4{fill:#D7385E;}
	.st5{fill:#FF6C58;}
</style>
<g id="Socks">
	<polygon class="st0" points="41,36 41,3 23,3 23,27 12,38 11,50 23,54 	"/>
	<path class="st1" d="M37,0H20v23.7c0,1.6-0.6,3.1-1.8,4.2l-6.6,6.6C9.3,36.8,8,40,8,43.4V44c0,6.6,5.4,12,12,12v-3.4l3,0.5V58l12,4
		l18-18V11H40.5v5H40c0,14.4-8.1,26-18,26c-2.8,0-5.4-0.7-7.5-2h-1.8c0.4-1,1-1.9,1.8-2.7l6.6-6.6c1.9-1.9,2.9-4.4,2.9-7.1V4h13V0z"
		/>
	<path class="st2" d="M42,26.3V38l-3.8,3.8C34.6,41,32,37.8,32,34c0-4.4,3.6-8,8-8C40.7,26,41.4,26.1,42,26.3z M52,34
		c-4.4,0-8,3.6-8,8c0,3.8,2.6,7,6.2,7.8L54,46V34.3C53.4,34.1,52.7,34,52,34z M20,44c-2.8-2.8-5.5-4.1-7-4.7c-0.7,1.2-1,2.6-1,4.1
		V44c0,4.4,3.6,8,8,8v0.6l5-0.6C25,52,24,48,20,44z M28,61l9-1c0,0-1-4-5-8c-0.7-0.7-1.3-1.3-2-1.8L22,55L28,61z"/>
	<path class="st3" d="M24.9,55.1c1.4,2.9,4.3,4.9,7.8,4.9c2.3,0,4.5-0.9,6.1-2.5l9.2-9.2c2.6-2.6,4.1-6.2,4.1-9.9V12h-8v18.4
		c0,4.8-1.9,9.4-5.3,12.7l-8.8,8.8C28.5,53.3,26.8,54.4,24.9,55.1z M36,0h8v8h12v30.4c0,4.8-1.9,9.4-5.3,12.7l-9.2,9.2
		C39.2,62.7,36,64,32.6,64c-5.3,0-9.9-3.3-11.7-8c-0.3,0-0.6,0-0.9,0v-4c0.6,0,1.3-0.1,1.9-0.2c2-0.4,3.8-1.3,5.2-2.8l8.8-8.8
		c2.6-2.6,4.1-6.2,4.1-9.9V4h-4V0z"/>
	<rect x="44" y="16" class="st4" width="8" height="4"/>
	<rect x="24" y="8" class="st5" width="16" height="4"/>
</g>
</svg>
